<svg width="483" height="108" viewBox="0 0 483 108" fill="none" xmlns="http://www.w3.org/2000/svg">
<path d="M24.512 52.696H65.856V72.28H24.512V52.696ZM26.304 103H0.959961V13.4H71.232V32.984H26.304V103Z" fill="white"/>
<path d="M156.808 103V33.624H179.976V53.848L176.52 48.088C178.568 42.8827 181.896 39 186.504 36.44C191.112 33.7947 196.701 32.472 203.272 32.472V54.36C202.163 54.1893 201.181 54.104 200.328 54.104C199.56 54.0187 198.707 53.976 197.768 53.976C192.819 53.976 188.808 55.3413 185.736 58.072C182.664 60.7173 181.128 65.0693 181.128 71.128V103H156.808Z" fill="white"/>
<path d="M298.556 32.472C303.932 32.472 308.711 33.5813 312.892 35.8C317.159 37.9333 320.487 41.2613 322.876 45.784C325.351 50.3067 326.588 56.152 326.588 63.32V103H302.268V67.288C302.268 62.3387 301.329 58.7547 299.452 56.536C297.575 54.232 295.015 53.08 291.772 53.08C289.468 53.08 287.377 53.6347 285.5 54.744C283.623 55.8533 282.172 57.56 281.148 59.864C280.124 62.0827 279.612 64.984 279.612 68.568V103H255.292V67.288C255.292 62.3387 254.353 58.7547 252.476 56.536C250.684 54.232 248.124 53.08 244.796 53.08C242.407 53.08 240.273 53.6347 238.396 54.744C236.604 55.8533 235.153 57.56 234.044 59.864C233.02 62.0827 232.508 64.984 232.508 68.568V103H208.188V33.624H231.356V52.952L226.748 47.448C229.308 42.4987 232.807 38.7867 237.244 36.312C241.681 33.752 246.631 32.472 252.092 32.472C258.321 32.472 263.783 34.0933 268.476 37.336C273.255 40.4933 276.455 45.4427 278.076 52.184L270.14 50.52C272.615 44.888 276.327 40.4933 281.276 37.336C286.311 34.0933 292.071 32.472 298.556 32.472Z" fill="white"/>
<path d="M336.818 103V33.624H361.138V103H336.818ZM348.978 25.944C344.541 25.944 340.957 24.7067 338.226 22.232C335.495 19.7573 334.13 16.6853 334.13 13.016C334.13 9.34668 335.495 6.27468 338.226 3.80001C340.957 1.32535 344.541 0.0880127 348.978 0.0880127C353.415 0.0880127 356.999 1.28268 359.73 3.67201C362.461 5.97601 363.826 8.96268 363.826 12.632C363.826 16.472 362.461 19.672 359.73 22.232C357.085 24.7067 353.501 25.944 348.978 25.944Z" fill="white"/>
<path d="M417.007 32.472C422.383 32.472 427.247 33.5813 431.599 35.8C435.951 37.9333 439.364 41.2613 441.839 45.784C444.399 50.3067 445.679 56.152 445.679 63.32V103H421.359V67.288C421.359 62.3387 420.335 58.7547 418.287 56.536C416.324 54.232 413.551 53.08 409.967 53.08C407.407 53.08 405.06 53.6773 402.927 54.872C400.794 55.9813 399.13 57.7307 397.935 60.12C396.74 62.5093 396.143 65.624 396.143 69.464V103H371.823V33.624H394.991V53.336L390.511 47.576C393.156 42.5413 396.783 38.7867 401.391 36.312C405.999 33.752 411.204 32.472 417.007 32.472Z" fill="white"/>
<path d="M455.828 103V33.624H480.148V103H455.828ZM467.988 25.944C463.551 25.944 459.967 24.7067 457.236 22.232C454.505 19.7573 453.14 16.6853 453.14 13.016C453.14 9.34668 454.505 6.27468 457.236 3.80001C459.967 1.32535 463.551 0.0880127 467.988 0.0880127C472.425 0.0880127 476.009 1.28268 478.74 3.67201C481.471 5.97601 482.836 8.96268 482.836 12.632C482.836 16.472 481.471 19.672 478.74 22.232C476.095 24.7067 472.511 25.944 467.988 25.944Z" fill="white"/>
<path d="M151 68C151 90.0914 133.091 108 111 108C88.9086 108 71 90.0914 71 68C71 45.9086 88.9086 28 111 28C133.091 28 151 45.9086 151 68ZM77.9345 68C77.9345 86.2615 92.7385 101.065 111 101.065C129.262 101.065 144.065 86.2615 144.065 68C144.065 49.7385 129.262 34.9345 111 34.9345C92.7385 34.9345 77.9345 49.7385 77.9345 68Z" fill="white"/>
<path d="M127.842 68C127.842 77.3016 120.302 84.8421 111 84.8421C101.698 84.8421 94.158 77.3016 94.158 68C94.158 58.6984 101.698 51.1579 111 51.1579C120.302 51.1579 127.842 58.6984 127.842 68ZM101.444 68C101.444 73.2779 105.722 77.5564 111 77.5564C116.278 77.5564 120.556 73.2779 120.556 68C120.556 62.7221 116.278 58.4436 111 58.4436C105.722 58.4436 101.444 62.7221 101.444 68Z" fill="white"/>
</svg>
