<svg width="482" height="108" viewBox="0 0 482 108" fill="none" xmlns="http://www.w3.org/2000/svg">
<path d="M23.552 52.608H64.896V72.192H23.552V52.608ZM25.344 102.912H0V13.312H70.272V32.896H25.344V102.912Z" fill="#3B82F6"/>
<path d="M155.848 102.912V33.536H179.016V53.76L175.56 48C177.608 42.7947 180.936 38.912 185.544 36.352C190.152 33.7067 195.741 32.384 202.312 32.384V54.272C201.203 54.1013 200.221 54.016 199.368 54.016C198.6 53.9307 197.747 53.888 196.808 53.888C191.859 53.888 187.848 55.2533 184.776 57.984C181.704 60.6293 180.168 64.9813 180.168 71.04V102.912H155.848Z" fill="#3B82F6"/>
<path d="M297.596 32.384C302.972 32.384 307.751 33.4933 311.932 35.712C316.199 37.8453 319.527 41.1733 321.916 45.696C324.391 50.2187 325.628 56.064 325.628 63.232V102.912H301.308V67.2C301.308 62.2507 300.369 58.6667 298.492 56.448C296.615 54.144 294.055 52.992 290.812 52.992C288.508 52.992 286.417 53.5467 284.54 54.656C282.663 55.7653 281.212 57.472 280.188 59.776C279.164 61.9947 278.652 64.896 278.652 68.48V102.912H254.332V67.2C254.332 62.2507 253.393 58.6667 251.516 56.448C249.724 54.144 247.164 52.992 243.836 52.992C241.447 52.992 239.313 53.5467 237.436 54.656C235.644 55.7653 234.193 57.472 233.084 59.776C232.06 61.9947 231.548 64.896 231.548 68.48V102.912H207.228V33.536H230.396V52.864L225.788 47.36C228.348 42.4107 231.847 38.6987 236.284 36.224C240.721 33.664 245.671 32.384 251.132 32.384C257.361 32.384 262.823 34.0053 267.516 37.248C272.295 40.4053 275.495 45.3547 277.116 52.096L269.18 50.432C271.655 44.8 275.367 40.4053 280.316 37.248C285.351 34.0053 291.111 32.384 297.596 32.384Z" fill="#3B82F6"/>
<path d="M335.858 102.912V33.536H360.178V102.912H335.858ZM348.018 25.856C343.581 25.856 339.997 24.6187 337.266 22.144C334.535 19.6693 333.17 16.5973 333.17 12.928C333.17 9.25866 334.535 6.18666 337.266 3.712C339.997 1.23733 343.581 0 348.018 0C352.455 0 356.039 1.19467 358.77 3.584C361.501 5.888 362.866 8.87467 362.866 12.544C362.866 16.384 361.501 19.584 358.77 22.144C356.125 24.6187 352.541 25.856 348.018 25.856Z" fill="#3B82F6"/>
<path d="M416.047 32.384C421.423 32.384 426.287 33.4933 430.639 35.712C434.991 37.8453 438.404 41.1733 440.879 45.696C443.439 50.2187 444.719 56.064 444.719 63.232V102.912H420.399V67.2C420.399 62.2507 419.375 58.6667 417.327 56.448C415.364 54.144 412.591 52.992 409.007 52.992C406.447 52.992 404.1 53.5893 401.967 54.784C399.834 55.8933 398.17 57.6427 396.975 60.032C395.78 62.4213 395.183 65.536 395.183 69.376V102.912H370.863V33.536H394.031V53.248L389.551 47.488C392.196 42.4533 395.823 38.6987 400.431 36.224C405.039 33.664 410.244 32.384 416.047 32.384Z" fill="#3B82F6"/>
<path d="M454.868 102.912V33.536H479.188V102.912H454.868ZM467.028 25.856C462.591 25.856 459.007 24.6187 456.276 22.144C453.545 19.6693 452.18 16.5973 452.18 12.928C452.18 9.25866 453.545 6.18666 456.276 3.712C459.007 1.23733 462.591 0 467.028 0C471.465 0 475.049 1.19467 477.78 3.584C480.511 5.888 481.876 8.87467 481.876 12.544C481.876 16.384 480.511 19.584 477.78 22.144C475.135 24.6187 471.551 25.856 467.028 25.856Z" fill="#3B82F6"/>
<path d="M150.04 67.912C150.04 90.0034 132.131 107.912 110.04 107.912C87.9486 107.912 70.04 90.0034 70.04 67.912C70.04 45.8206 87.9486 27.912 110.04 27.912C132.131 27.912 150.04 45.8206 150.04 67.912ZM76.9746 67.912C76.9746 86.1735 91.7785 100.977 110.04 100.977C128.302 100.977 143.105 86.1735 143.105 67.912C143.105 49.6504 128.302 34.8465 110.04 34.8465C91.7785 34.8465 76.9746 49.6504 76.9746 67.912Z" fill="#3B82F6"/>
<path d="M126.882 67.912C126.882 77.2136 119.342 84.7541 110.04 84.7541C100.738 84.7541 93.198 77.2136 93.198 67.912C93.198 58.6104 100.738 51.0699 110.04 51.0699C119.342 51.0699 126.882 58.6104 126.882 67.912ZM100.484 67.912C100.484 73.1899 104.762 77.4684 110.04 77.4684C115.318 77.4684 119.597 73.1899 119.597 67.912C119.597 62.6341 115.318 58.3556 110.04 58.3556C104.762 58.3556 100.484 62.6341 100.484 67.912Z" fill="#3B82F6"/>
</svg>
