<?xml version="1.0" encoding="UTF-8"?><svg xmlns="http://www.w3.org/2000/svg" xmlns:xlink="http://www.w3.org/1999/xlink" viewBox="0 0 1232.29 225.57"><defs><style>.l{fill:#fff;}.m{fill:url(#f);}.n{fill:url(#h);}.o{fill:url(#j);}</style><linearGradient id="f" x1="-5709.21" y1="383.29" x2="-5746.95" y2="382.85" gradientTransform="translate(91162.33 6177.01) scale(15.84 -15.84)" gradientUnits="userSpaceOnUse"><stop offset="0" stop-color="#51c8fd"/><stop offset="1" stop-color="#9f94fa"/></linearGradient><linearGradient id="h" x1="-5744.15" y1="386.74" x2="-5723.99" y2="369.14" gradientTransform="translate(91163.65 6177.01) scale(15.84 -15.84)" gradientUnits="userSpaceOnUse"><stop offset="0" stop-color="#2560ff"/><stop offset=".42" stop-color="#51c8fd"/><stop offset="1" stop-color="#9f94fa"/></linearGradient><linearGradient id="j" x1="-4795.1" y1="328.7" x2="-4760.51" y2="337.92" gradientTransform="translate(22403.97 2804.31) scale(4.64 -8)" xlink:href="#f"/></defs><g id="a"/><g id="b"><g id="c"><g><g><path class="l" d="M501.09,214.55l-40.82-75.8h-6.12v75.8h-57.14V9.01h90.09c16.52,0,30.51,2.87,41.98,8.6,11.47,5.74,20.12,13.61,25.95,23.62,5.83,10.01,8.75,21.24,8.75,33.67,0,13.99-3.84,26.29-11.52,36.88-7.68,10.6-18.9,18.13-33.67,22.59l46.36,80.18h-63.85Zm-46.94-114.87h28.28c7.77,0,13.6-1.85,17.49-5.54,3.88-3.69,5.83-9.04,5.83-16.04,0-6.61-2-11.81-5.98-15.6-3.99-3.79-9.77-5.69-17.35-5.69h-28.28v42.86Z"/><path class="l" d="M829.66,9.01V214.55h-57.14V101.14l-38.78,113.41h-47.81l-39.07-114.29v114.29h-57.14V9.01h69.1l51.6,133.53L760.86,9.01h68.81Z"/><path class="l" d="M919.46,9.01V214.55h-57.14V9.01h57.14Z"/><path class="l" d="M1142.49,214.55h-57.14l-76.09-114.87v114.87h-57.14V9.01h57.14l76.09,116.33V9.01h57.14V214.55Z"/><path class="l" d="M1232.29,9.01V214.55h-57.14V9.01h57.14Z"/></g><path class="l" d="M139.36,9.01V54.5H57.14v36.15h60.64v43.44H57.14v80.47H0V9.01H139.36Z"/><g id="d" transform="translate(11.122 2.021)"><g id="e" transform="translate(0)"><path id="g" class="m" d="M252.72,225.57c-62.29-.04-112.75-50.56-112.71-112.85,.03-45.28,27.13-86.15,68.83-103.8,57.38-24.25,123.55,2.61,147.8,59.99,24.25,57.38-2.61,123.55-59.99,147.8-13.9,5.88-28.84,8.89-43.93,8.86Zm9.43-168.93c-26.25,0-47.6,25.2-47.6,56.18s21.37,56.18,47.6,56.18,47.6-25.2,47.6-56.18-21.35-56.18-47.6-56.18Z"/><path id="i" class="n" d="M271.58,225.57c-62.29-.04-112.75-50.56-112.71-112.85,.03-45.28,27.13-86.15,68.83-103.8,57.38-24.25,123.55,2.61,147.8,59.99,24.25,57.38-2.61,123.55-59.99,147.8-13.9,5.88-28.84,8.89-43.93,8.86Zm-9.43-168.93c-26.25,0-47.6,25.2-47.6,56.18s21.37,56.18,47.6,56.18,47.66-25.2,47.66-56.18-21.37-56.18-47.66-56.18Z"/><path id="k" class="o" d="M271.58,55.8c-3.16,.02-6.31,.3-9.43,.84,31.03,5.22,51.95,34.61,46.73,65.64-4.03,23.94-22.79,42.69-46.73,46.73,31.06,5.06,60.33-16.02,65.39-47.08,5.06-31.06-16.02-60.33-47.08-65.39-2.94-.48-5.9-.73-8.88-.74Z"/></g></g></g></g></g></svg>