<?xml version="1.0" encoding="UTF-8"?><svg xmlns="http://www.w3.org/2000/svg" xmlns:xlink="http://www.w3.org/1999/xlink" viewBox="0 0 1232.29 221.08"><defs><style>.l{fill:#0f172a;}.m{fill:url(#f);}.n{fill:url(#h);}.o{fill:url(#j);}</style><linearGradient id="f" x1="-5721.38" y1="936.57" x2="-5758.38" y2="936.13" gradientTransform="translate(91346.94 14936.86) scale(15.84 -15.84)" gradientUnits="userSpaceOnUse"><stop offset="0" stop-color="#51c8fd"/><stop offset="1" stop-color="#9f94fa"/></linearGradient><linearGradient id="h" x1="-5755.63" y1="939.94" x2="-5735.88" y2="922.69" gradientTransform="translate(91348.27 14936.86) scale(15.84 -15.84)" gradientUnits="userSpaceOnUse"><stop offset="0" stop-color="#2560ff"/><stop offset=".42" stop-color="#51c8fd"/><stop offset="1" stop-color="#9f94fa"/></linearGradient><linearGradient id="j" x1="-4804" y1="914.45" x2="-4770.1" y2="923.49" gradientTransform="translate(22449.3 7487.15) scale(4.64 -8)" xlink:href="#f"/></defs><g id="a"/><g id="b"><g id="c"><g><g><path class="l" d="M501.09,212.31l-40.82-75.8h-6.12v75.8h-57.14V6.77h90.09c16.52,0,30.51,2.87,41.98,8.6,11.47,5.74,20.12,13.61,25.95,23.62,5.83,10.01,8.75,21.24,8.75,33.67,0,13.99-3.84,26.29-11.52,36.88-7.68,10.6-18.91,18.13-33.67,22.59l46.36,80.18h-63.85Zm-46.94-114.87h28.28c7.77,0,13.6-1.85,17.49-5.54,3.89-3.69,5.83-9.04,5.83-16.04,0-6.61-2-11.81-5.98-15.6-3.99-3.79-9.77-5.69-17.35-5.69h-28.28v42.86Z"/><path class="l" d="M829.66,6.77V212.31h-57.14V98.9l-38.78,113.41h-47.81l-39.07-114.29v114.29h-57.14V6.77h69.1l51.6,133.53L760.86,6.77h68.81Z"/><path class="l" d="M919.46,6.77V212.31h-57.14V6.77h57.14Z"/><path class="l" d="M1142.49,212.31h-57.14l-76.09-114.87v114.87h-57.14V6.77h57.14l76.09,116.33V6.77h57.14V212.31Z"/><path class="l" d="M1232.29,6.77V212.31h-57.14V6.77h57.14Z"/></g><path class="l" d="M139.36,6.77V52.25H57.14v36.15h60.64v43.44H57.14v80.47H0V6.77H139.36Z"/><g id="d" transform="translate(11.122 2.021)"><g id="e" transform="translate(0)"><path id="g" class="m" d="M254.47,221.08c-61.05-.04-110.5-49.55-110.47-110.6,.03-44.38,26.59-84.44,67.46-101.73,56.24-23.77,121.09,2.56,144.85,58.79,23.77,56.24-2.56,121.09-58.79,144.85-13.62,5.76-28.26,8.72-43.05,8.68Zm9.24-165.56c-25.73,0-46.65,24.69-46.65,55.06s20.94,55.06,46.65,55.06,46.65-24.69,46.65-55.06-20.93-55.06-46.65-55.06Z"/><path id="i" class="n" d="M272.96,221.08c-61.05-.04-110.5-49.55-110.47-110.6,.03-44.38,26.59-84.44,67.46-101.73,56.24-23.77,121.09,2.56,144.85,58.79,23.77,56.24-2.56,121.09-58.79,144.85-13.62,5.76-28.26,8.72-43.05,8.68Zm-9.24-165.56c-25.73,0-46.65,24.69-46.65,55.06s20.94,55.06,46.65,55.06,46.71-24.69,46.71-55.06-20.94-55.06-46.71-55.06Z"/><path id="k" class="o" d="M272.95,54.69c-3.1,.02-6.19,.3-9.24,.82,30.41,5.12,50.91,33.92,45.79,64.33-3.95,23.46-22.33,41.84-45.79,45.79,30.44,4.95,59.13-15.7,64.08-46.14,4.95-30.44-15.7-59.13-46.14-64.08-2.88-.47-5.79-.71-8.7-.72Z"/></g></g></g></g></g></svg>