<?xml version="1.0" encoding="UTF-8"?><svg xmlns="http://www.w3.org/2000/svg" xmlns:xlink="http://www.w3.org/1999/xlink" viewBox="0 0 1379 225.57"><defs><style>.l{fill:#0f172a;}.m{fill:url(#f);}.n{fill:url(#h);}.o{fill:url(#j);}</style><linearGradient id="f" x1="-2047.87" y1="936.27" x2="-2085.61" y2="935.83" gradientTransform="translate(33212.94 14934.26) scale(15.84 -15.84)" gradientUnits="userSpaceOnUse"><stop offset="0" stop-color="#51c8fd"/><stop offset="1" stop-color="#9f94fa"/></linearGradient><linearGradient id="h" x1="-2082.81" y1="939.71" x2="-2062.65" y2="922.11" gradientTransform="translate(33214.26 14934.26) scale(15.84 -15.84)" gradientUnits="userSpaceOnUse"><stop offset="0" stop-color="#2560ff"/><stop offset=".42" stop-color="#51c8fd"/><stop offset="1" stop-color="#9f94fa"/></linearGradient><linearGradient id="j" x1="-1723.85" y1="913.85" x2="-1689.25" y2="923.06" gradientTransform="translate(8173.17 7485.76) scale(4.64 -8)" xlink:href="#f"/></defs><g id="a"/><g id="b"><g id="c"><g><g><path class="l" d="M542.01,209.6l-26.82-62.39h-21.28v62.39h-58.89V15.13h103.79c45.48,0,69.97,30.32,69.97,66.77,0,33.53-19.53,51.31-34.99,58.89l35.28,68.81h-67.06Zm-12.25-145.48h-35.86v34.11h35.86c9.91,0,19.24-6.41,19.24-17.2s-9.33-16.91-19.24-16.91Z"/><path class="l" d="M804.69,209.6V86.86l-43.44,122.74h-26.24l-43.44-122.74v122.74h-58.89V15.13h81.34l34.11,99.13,34.11-99.13h81.34V209.6h-58.89Z"/><path class="l" d="M895.07,209.6V15.13h58.89V209.6h-58.89Z"/><path class="l" d="M1116.06,209.6l-71.72-104.38v104.38h-58.89V15.13h60.64l67.64,97.96V15.13h58.89V209.6h-56.56Z"/><path class="l" d="M1204.11,209.6V15.13h58.89V209.6h-58.89Z"/></g><path class="l" d="M0,209.6V15.13H147.52v48.98H58.89v22.74h86.59v48.98H58.89v73.76H0Z"/><g id="d" transform="translate(11.122 2.021)"><g id="e" transform="translate(0)"><path id="g" class="m" d="M282.35,225.57c-62.29-.04-112.75-50.56-112.71-112.85,.03-45.28,27.13-86.15,68.83-103.8,57.38-24.25,123.55,2.61,147.8,59.99,24.25,57.38-2.61,123.55-59.99,147.8-13.9,5.88-28.84,8.89-43.93,8.86Zm9.43-168.93c-26.25,0-47.6,25.2-47.6,56.18s21.37,56.18,47.6,56.18,47.6-25.2,47.6-56.18-21.35-56.18-47.6-56.18Z"/><path id="i" class="n" d="M301.21,225.57c-62.29-.04-112.75-50.56-112.71-112.85,.03-45.28,27.13-86.15,68.83-103.8,57.38-24.25,123.55,2.61,147.8,59.99,24.25,57.38-2.61,123.55-59.99,147.8-13.9,5.88-28.84,8.89-43.93,8.86Zm-9.43-168.93c-26.25,0-47.6,25.2-47.6,56.18s21.37,56.18,47.6,56.18,47.66-25.2,47.66-56.18-21.37-56.18-47.66-56.18Z"/><path id="k" class="o" d="M301.21,55.8c-3.16,.02-6.31,.3-9.43,.84,31.03,5.22,51.95,34.61,46.73,65.64-4.03,23.94-22.79,42.69-46.73,46.73,31.06,5.06,60.33-16.02,65.39-47.08,5.06-31.06-16.02-60.33-47.08-65.39-2.94-.48-5.9-.73-8.88-.74Z"/></g></g><g><path class="l" d="M1334,14.03c-24.85,0-45,20.15-45,45s20.15,45,45,45,45-20.15,45-45-20.15-45-45-45Zm-34.97,64.07c-2.42,0-4.08-1.87-4.08-4.36s1.73-4.36,4.15-4.36,4.08,1.8,4.08,4.36-1.59,4.36-4.15,4.36Zm18.73-.07c-3.66,0-7.05-.9-9.4-2.28l1.52-4.63c1.8,1.18,4.98,2.42,8.02,2.42,4.42,0,6.5-2.21,6.5-4.98,0-2.9-1.73-4.49-6.22-6.15-6.01-2.14-8.85-5.46-8.85-9.47,0-5.39,4.36-9.82,11.55-9.82,3.39,0,6.36,.97,8.23,2.07l-1.52,4.42c-1.31-.83-3.73-1.94-6.84-1.94-3.6,0-5.6,2.07-5.6,4.56,0,2.77,2,4.01,6.36,5.67,5.81,2.21,8.78,5.12,8.78,10.09,0,5.88-4.56,10.02-12.51,10.02Zm33.94,.07c-9.06,0-16.04-6.64-16.04-17.22,0-11.2,7.33-17.77,16.59-17.77s16.11,6.98,16.11,17.22c0,12.38-8.57,17.77-16.66,17.77Z"/><path class="l" d="M1352.12,47.68c-7.19,0-10.3,6.64-10.3,13,0,7.33,4.22,12.86,10.16,12.86s10.16-5.46,10.16-13c0-5.67-2.83-12.86-10.02-12.86Z"/></g></g></g></g></svg>